<?xml version="1.0" standalone="no"?><!DOCTYPE svg PUBLIC "-//W3C//DTD SVG 1.1//EN" 	"http://www.w3.org/Graphics/SVG/1.1/DTD/svg11.dtd"><svg width="1920" height="1039" version="1.1"	xmlns="http://www.w3.org/2000/svg"><title>Rec@ntrifuge (snapshot) - SHARED_SUMMARY - root</title><defs>	<style type="text/css">	@import url("https://fonts.googleapis.com/css?family=Ubuntu");	text {font-size: 16px; font-family: Ubuntu; dominant-baseline:central}	path {stroke-width:0.39999999999999997;}	path.wedge {stroke:none}	path.line {fill:none;stroke:black;}	line {stroke:black;stroke-width:0.39999999999999997;}	line.tick {stroke-width:0.7999999999999999;}	line.pattern {stroke-width:0.26666666666666666;}	circle {fill:none;stroke:black;stroke-width:0.39999999999999997;}	rect {stroke:black;stroke-width:0.39999999999999997;}	.highlight {stroke:black;stroke-width:2;}	.searchHighlight {fill:rgb(255, 255, 100);stroke:none;}	</style><pattern id="hiddenPattern" patternUnits="userSpaceOnUse" x="0" y="0" width="9.6" height="9.6"><line class="pattern" x1="0" y1="0" x2="4.8" y2="4.8"/><line class="pattern" x1="4.8" y1="9.6" x2="9.6" y2="4.8"/></pattern></defs><path class="wedge" fill="rgb(209,117,117)" d=" M 1062.224112438319,600.0225 L 1062.224112438319,841.59 A 322.09000000000003,322.09000000000003 0 1,1 1255.741171814145,262.02550450475087 L 1110.6033772822755,455.1313761261877 A 80.52250000000001,80.52250000000001 0 1 0 1062.224112438319,600.0225 Z "/><path class="wedge" fill="rgb(214,132,132)" d=" M 1062.224112438319,662.6922411010001 L 1062.224112438319,841.59 A 322.09000000000003,322.09000000000003 0 0,1 740.148405492191,516.4656804466358 L 919.0382256308894,518.1510260577392 A 143.19224110100012,143.19224110100012 0 0 0 1062.224112438319,662.6922411010001 Z "/><path class="wedge" fill="rgb(214,132,132)" d=" M 867.6553536233644,518.6054873457576 L 740.1375162625199,518.0192353705914 A 322.09000000000003,322.09000000000003 0 0,1 740.148405492191,516.4656804466358 L 867.6619316800942,517.6670029229538 A 194.5708150254827,194.5708150254827 0 0 0 867.6553536233644,518.6054873457576 Z "/><path class="wedge" fill="rgb(219,147,147)" d=" M 1062.224112438319,714.0708150254827 L 1062.224112438319,841.59 A 322.09000000000003,322.09000000000003 0 0,1 869.7487397478484,777.7541364773552 L 945.9519831057771,675.5083138815277 A 194.5708150254827,194.5708150254827 0 0 0 1062.224112438319,714.0708150254827 Z "/><path class="wedge" fill="rgb(219,147,147)" d=" M 923.4281590369969,712.1620739236583 L 873.9546038758737,780.8361058974732 A 322.09000000000003,322.09000000000003 0 0,1 869.7487397478484,777.7541364773552 L 920.3275139777782,709.8899859616445 A 237.45102949691994,237.45102949691994 0 0 0 923.4281590369969,712.1620739236583 Z "/><path class="wedge" fill="rgb(224,163,163)" d=" M 1062.224112438319,756.95102949692 L 1062.224112438319,841.59 A 322.09000000000003,322.09000000000003 0 0,1 918.1479866441696,807.5695021624963 L 956.0083826865462,731.8704550130396 A 237.45102949691994,237.45102949691994 0 0 0 1062.224112438319,756.95102949692 Z "/><path class="wedge" fill="rgb(224,167,163)" d=" M 956.0083826865462,731.8704550130396 L 918.1479866441696,807.5695021624963 A 322.09000000000003,322.09000000000003 0 0,1 873.9546038758737,780.8361058974732 L 923.4281590369969,712.1620739236583 A 237.45102949691994,237.45102949691994 0 0 0 956.0083826865462,731.8704550130396 Z "/><path class="wedge" fill="url(#hiddenPattern)" d=" M 956.0083826865462,731.8704550130396 L 918.1479866441696,807.5695021624963 A 322.09000000000003,322.09000000000003 0 0,1 873.9546038758737,780.8361058974732 L 923.4281590369969,712.1620739236583 A 237.45102949691994,237.45102949691994 0 0 0 956.0083826865462,731.8704550130396 Z "/><path class="wedge" fill="rgb(219,153,147)" d=" M 945.9519831057771,675.5083138815277 L 869.7487397478484,777.7541364773552 A 322.09000000000003,322.09000000000003 0 0,1 741.6046967411924,550.2434282088554 L 868.541660250471,538.0717466648279 A 194.5708150254827,194.5708150254827 0 0 0 945.9519831057771,675.5083138815277 Z "/><path class="wedge" fill="rgb(219,153,147)" d=" M 826.4287804608764,547.4920136252249 L 742.3799802081,557.4697139559702 A 322.09000000000003,322.09000000000003 0 0,1 741.6046967411924,550.2434282088554 L 825.8572263692586,542.1646548432344 A 237.45102949691994,237.45102949691994 0 0 0 826.4287804608764,547.4920136252249 Z "/><path class="wedge" fill="rgb(224,168,163)" d=" M 920.3275139777782,709.8899859616445 L 869.7487397478484,777.7541364773552 A 322.09000000000003,322.09000000000003 0 0,1 766.6252963156575,647.4191463655108 L 844.3029003348798,613.8044894186646 A 237.45102949691994,237.45102949691994 0 0 0 920.3275139777782,709.8899859616445 Z "/><path class="wedge" fill="rgb(224,172,163)" d=" M 844.3029003348798,613.8044894186646 L 766.6252963156575,647.4191463655108 A 322.09000000000003,322.09000000000003 0 0,1 756.1755470266899,619.8804946664629 L 836.5991413648713,593.5024583189844 A 237.45102949691994,237.45102949691994 0 0 0 844.3029003348798,613.8044894186646 Z "/><path class="wedge" fill="rgb(224,173,163)" d=" M 836.5991413648713,593.5024583189844 L 756.1755470266899,619.8804946664629 A 322.09000000000003,322.09000000000003 0 0,1 748.5191155309051,592.5146767117368 L 830.9546707481284,573.3278436262742 A 237.45102949691994,237.45102949691994 0 0 0 836.5991413648713,593.5024583189844 Z "/><path class="wedge" fill="rgb(224,173,163)" d=" M 830.9546707481284,573.3278436262742 L 748.5191155309051,592.5146767117368 A 322.09000000000003,322.09000000000003 0 0,1 744.0745511129473,569.7277286812139 L 827.6780511799659,556.5288611401975 A 237.45102949691994,237.45102949691994 0 0 0 830.9546707481284,573.3278436262742 Z "/><path class="wedge" fill="rgb(224,174,163)" d=" M 827.6780511799659,556.5288611401975 L 744.0745511129473,569.7277286812139 A 322.09000000000003,322.09000000000003 0 0,1 742.3799802081,557.4697139559702 L 826.4287804608764,547.4920136252249 A 237.45102949691994,237.45102949691994 0 0 0 827.6780511799659,556.5288611401975 Z "/><path class="wedge" fill="url(#hiddenPattern)" d=" M 827.6780511799659,556.5288611401975 L 744.0745511129473,569.7277286812139 A 322.09000000000003,322.09000000000003 0 0,1 742.3799802081,557.4697139559702 L 826.4287804608764,547.4920136252249 A 237.45102949691994,237.45102949691994 0 0 0 827.6780511799659,556.5288611401975 Z "/><path class="wedge" fill="rgb(219,161,147)" d=" M 868.541660250471,538.0717466648279 L 741.6046967411924,550.2434282088554 A 322.09000000000003,322.09000000000003 0 0,1 740.1493821139807,522.6362695204189 L 867.6625216459347,521.3945838639122 A 194.5708150254827,194.5708150254827 0 0 0 868.541660250471,538.0717466648279 Z "/><path class="wedge" fill="rgb(224,175,163)" d=" M 825.8572263692586,542.1646548432344 L 741.6046967411924,550.2434282088554 A 322.09000000000003,322.09000000000003 0 0,1 740.1636844552183,523.8644962300426 L 824.7948840089798,522.7175917385173 A 237.45102949691994,237.45102949691994 0 0 0 825.8572263692586,542.1646548432344 Z "/><path class="wedge" fill="rgb(224,175,163)" d=" M 824.7948840089798,522.7175917385173 L 740.1636844552183,523.8644962300426 A 322.09000000000003,322.09000000000003 0 0,1 740.1493821139807,522.6362695204189 L 824.7843400440906,521.8121190549327 A 237.45102949691994,237.45102949691994 0 0 0 824.7948840089798,522.7175917385173 Z "/><path class="wedge" fill="url(#hiddenPattern)" d=" M 824.7948840089798,522.7175917385173 L 740.1636844552183,523.8644962300426 A 322.09000000000003,322.09000000000003 0 0,1 740.1493821139807,522.6362695204189 L 824.7843400440906,521.8121190549327 A 237.45102949691994,237.45102949691994 0 0 0 824.7948840089798,522.7175917385173 Z "/><path class="wedge" fill="rgb(214,149,132)" d=" M 867.6625216459347,521.3945838639122 L 740.1493821139807,522.6362695204189 A 322.09000000000003,322.09000000000003 0 0,1 740.1375162625199,518.0192353705914 L 867.6553536233644,518.6054873457576 A 194.5708150254827,194.5708150254827 0 0 0 867.6625216459347,521.3945838639122 Z "/><path class="wedge" fill="url(#hiddenPattern)" d=" M 867.6625216459347,521.3945838639122 L 740.1493821139807,522.6362695204189 A 322.09000000000003,322.09000000000003 0 0,1 740.1375162625199,518.0192353705914 L 867.6553536233644,518.6054873457576 A 194.5708150254827,194.5708150254827 0 0 0 867.6625216459347,521.3945838639122 Z "/><path class="wedge" fill="rgb(214,149,132)" d=" M 919.0382256308894,518.1510260577392 L 740.148405492191,516.4656804466358 A 322.09000000000003,322.09000000000003 0 0,1 1093.9339627676022,198.97472253799623 L 1076.3214285103093,377.00339094879007 A 143.19224110100012,143.19224110100012 0 0 0 919.0382256308894,518.1510260577392 Z "/><path class="wedge" fill="rgb(219,162,147)" d=" M 867.6619316800942,517.6670029229538 L 740.148405492191,516.4656804466358 A 322.09000000000003,322.09000000000003 0 0,1 1059.8112084070767,197.4190381377129 L 1060.7665052355587,324.93464480816976 A 194.5708150254827,194.5708150254827 0 0 0 867.6619316800942,517.6670029229538 Z "/><path class="wedge" fill="rgb(224,175,163)" d=" M 824.7836200594611,517.2630404490392 L 740.148405492191,516.4656804466358 A 322.09000000000003,322.09000000000003 0 0,1 1059.8112084070767,197.4190381377129 L 1060.4452725293006,282.05563359446654 A 237.45102949691994,237.45102949691994 0 0 0 824.7836200594611,517.2630404490392 Z "/><path class="wedge" fill="rgb(224,188,163)" d=" M 1060.4452725293006,282.05563359446654 L 1059.8112084070767,197.4190381377129 A 322.09000000000003,322.09000000000003 0 0,1 1059.8112084070767,197.4190381377129 L 1060.4452725293006,282.05563359446654 A 237.45102949691994,237.45102949691994 0 0 0 1060.4452725293006,282.05563359446654 Z "/><path class="wedge" fill="url(#hiddenPattern)" d=" M 1060.4452725293006,282.05563359446654 L 1059.8112084070767,197.4190381377129 A 322.09000000000003,322.09000000000003 0 0,1 1059.8112084070767,197.4190381377129 L 1060.4452725293006,282.05563359446654 A 237.45102949691994,237.45102949691994 0 0 0 1060.4452725293006,282.05563359446654 Z "/><path class="wedge" fill="rgb(214,166,132)" d=" M 1060.7665052355587,324.93464480816976 L 1059.8112084070767,197.4190381377129 A 322.09000000000003,322.09000000000003 0 0,1 1093.9339627676022,198.97472253799623 L 1081.379663442401,325.87441562280407 A 194.5708150254827,194.5708150254827 0 0 0 1060.7665052355587,324.93464480816976 Z "/><path class="wedge" fill="url(#hiddenPattern)" d=" M 1060.7665052355587,324.93464480816976 L 1059.8112084070767,197.4190381377129 A 322.09000000000003,322.09000000000003 0 0,1 1093.9339627676022,198.97472253799623 L 1081.379663442401,325.87441562280407 A 194.5708150254827,194.5708150254827 0 0 0 1060.7665052355587,324.93464480816976 Z "/><path class="wedge" fill="rgb(214,167,132)" d=" M 1076.3214285103093,377.00339094879007 L 1093.9339627676022,198.97472253799623 A 322.09000000000003,322.09000000000003 0 0,1 1175.5964548702764,218.02250486729355 L 1112.6262975160985,385.4715043324286 A 143.19224110100012,143.19224110100012 0 0 0 1076.3214285103093,377.00339094879007 Z "/><path class="wedge" fill="rgb(219,178,147)" d=" M 1081.379663442401,325.87441562280407 L 1093.9339627676022,198.97472253799623 A 322.09000000000003,322.09000000000003 0 0,1 1172.9291168702503,217.03286113409587 L 1129.0997153434714,336.7831266802297 A 194.5708150254827,194.5708150254827 0 0 0 1081.379663442401,325.87441562280407 Z "/><path class="wedge" fill="rgb(219,180,147)" d=" M 1129.0997153434714,336.7831266802297 L 1172.9291168702503,217.03286113409587 A 322.09000000000003,322.09000000000003 0 0,1 1175.5964548702764,218.02250486729355 L 1130.711023141334,337.38095892510887 A 194.5708150254827,194.5708150254827 0 0 0 1129.0997153434714,336.7831266802297 Z "/><path class="wedge" fill="url(#hiddenPattern)" d=" M 1129.0997153434714,336.7831266802297 L 1172.9291168702503,217.03286113409587 A 322.09000000000003,322.09000000000003 0 0,1 1175.5964548702764,218.02250486729355 L 1130.711023141334,337.38095892510887 A 194.5708150254827,194.5708150254827 0 0 0 1129.0997153434714,336.7831266802297 Z "/><path class="wedge" fill="rgb(214,170,132)" d=" M 1112.6262975160985,385.4715043324286 L 1175.5964548702764,218.02250486729355 A 322.09000000000003,322.09000000000003 0 0,1 1251.3552821486078,258.7868074990873 L 1146.3065616074018,403.594177655928 A 143.19224110100012,143.19224110100012 0 0 0 1112.6262975160985,385.4715043324286 Z "/><path class="wedge" fill="rgb(219,180,147)" d=" M 1130.711023141334,337.38095892510887 L 1175.5964548702764,218.02250486729355 A 322.09000000000003,322.09000000000003 0 0,1 1251.2216431812853,258.6899130151184 L 1176.3953179847895,361.9476662066024 A 194.5708150254827,194.5708150254827 0 0 0 1130.711023141334,337.38095892510887 Z "/><path class="wedge" fill="rgb(224,191,163)" d=" M 1145.8044143009836,297.2449110825738 L 1175.5964548702764,218.02250486729355 A 322.09000000000003,322.09000000000003 0 0,1 1250.3872465549885,258.08729361526383 L 1200.9416445236684,326.7814547032455 A 237.45102949691994,237.45102949691994 0 0 0 1145.8044143009836,297.2449110825738 Z "/><path class="wedge" fill="rgb(224,193,163)" d=" M 1200.9416445236684,326.7814547032455 L 1250.3872465549885,258.08729361526383 A 322.09000000000003,322.09000000000003 0 0,1 1251.2216431812853,258.6899130151184 L 1201.5567779892308,327.22571747728466 A 237.45102949691994,237.45102949691994 0 0 0 1200.9416445236684,326.7814547032455 Z "/><path class="wedge" fill="url(#hiddenPattern)" d=" M 1200.9416445236684,326.7814547032455 L 1250.3872465549885,258.08729361526383 A 322.09000000000003,322.09000000000003 0 0,1 1251.2216431812853,258.6899130151184 L 1201.5567779892308,327.22571747728466 A 237.45102949691994,237.45102949691994 0 0 0 1200.9416445236684,326.7814547032455 Z "/><path class="wedge" fill="rgb(214,173,132)" d=" M 1176.3953179847895,361.9476662066024 L 1251.2216431812853,258.6899130151184 A 322.09000000000003,322.09000000000003 0 0,1 1251.3552821486078,258.7868074990873 L 1176.4760477273803,362.0061990350581 A 194.5708150254827,194.5708150254827 0 0 0 1176.3953179847895,361.9476662066024 Z "/><path class="wedge" fill="url(#hiddenPattern)" d=" M 1176.3953179847895,361.9476662066024 L 1251.2216431812853,258.6899130151184 A 322.09000000000003,322.09000000000003 0 0,1 1251.3552821486078,258.7868074990873 L 1176.4760477273803,362.0061990350581 A 194.5708150254827,194.5708150254827 0 0 0 1176.3953179847895,361.9476662066024 Z "/><path class="wedge" fill="rgb(209,163,117)" d=" M 1146.3065616074018,403.594177655928 L 1251.3552821486078,258.7868074990873 A 322.09000000000003,322.09000000000003 0 0,1 1255.741171814145,262.02550450475087 L 1148.2564059690087,405.0340121198607 A 143.19224110100012,143.19224110100012 0 0 0 1146.3065616074018,403.594177655928 Z "/><path class="wedge" fill="url(#hiddenPattern)" d=" M 1146.3065616074018,403.594177655928 L 1251.3552821486078,258.7868074990873 A 322.09000000000003,322.09000000000003 0 0,1 1255.741171814145,262.02550450475087 L 1148.2564059690087,405.0340121198607 A 143.19224110100012,143.19224110100012 0 0 0 1146.3065616074018,403.594177655928 Z "/><path class="wedge" fill="rgb(163,209,117)" d=" M 1110.6033772822755,455.1313761261877 L 1255.741171814145,262.02550450475087 A 322.09000000000003,322.09000000000003 0 0,1 1096.2425276939807,839.788487965917 L 1070.7287162522343,599.5721219914792 A 80.52250000000001,80.52250000000001 0 0 0 1110.6033772822755,455.1313761261877 Z "/><path class="wedge" fill="rgb(173,214,132)" d=" M 1148.2564059690087,405.0340121198607 L 1255.741171814145,262.02550450475087 A 322.09000000000003,322.09000000000003 0 0,1 1105.3232172741123,838.6934135635529 L 1081.3847737779577,661.4044994655019 A 143.19224110100012,143.19224110100012 0 0 0 1148.2564059690087,405.0340121198607 Z "/><path class="wedge" fill="rgb(173,214,132)" d=" M 1090.2144560361542,712.0469883559743 L 1108.558963676137,838.2397836178743 A 322.09000000000003,322.09000000000003 0 0,1 1105.3232172741123,838.6934135635529 L 1088.2597793474717,712.32102091908 A 194.5708150254827,194.5708150254827 0 0 0 1090.2144560361542,712.0469883559743 Z "/><path class="wedge" fill="rgb(183,219,147)" d=" M 1179.1255125565754,363.9626581490093 L 1255.741171814145,262.02550450475087 A 322.09000000000003,322.09000000000003 0 0,1 1109.8701918114098,838.0464161160397 L 1091.0065536702452,711.9301773018237 A 194.5708150254827,194.5708150254827 0 0 0 1179.1255125565754,363.9626581490093 Z "/><path class="wedge" fill="rgb(193,224,163)" d=" M 1204.8886626385936,329.68478057515915 L 1255.741171814145,262.02550450475087 A 322.09000000000003,322.09000000000003 0 0,1 1112.2456203255804,837.6820498530435 L 1099.1009435874341,754.070012434554 A 237.45102949691994,237.45102949691994 0 0 0 1204.8886626385936,329.68478057515915 Z "/><path class="wedge" fill="rgb(164,224,163)" d=" M 1099.1009435874341,754.070012434554 L 1112.2456203255804,837.6820498530435 A 322.09000000000003,322.09000000000003 0 0,1 1109.8701918114098,838.0464161160397 L 1097.34973136046,754.3386303496162 A 237.45102949691994,237.45102949691994 0 0 0 1099.1009435874341,754.070012434554 Z "/><path class="wedge" fill="url(#hiddenPattern)" d=" M 1099.1009435874341,754.070012434554 L 1112.2456203255804,837.6820498530435 A 322.09000000000003,322.09000000000003 0 0,1 1109.8701918114098,838.0464161160397 L 1097.34973136046,754.3386303496162 A 237.45102949691994,237.45102949691994 0 0 0 1099.1009435874341,754.070012434554 Z "/><path class="wedge" fill="rgb(133,214,132)" d=" M 1091.0065536702452,711.9301773018237 L 1109.8701918114098,838.0464161160397 A 322.09000000000003,322.09000000000003 0 0,1 1108.558963676137,838.2397836178743 L 1090.2144560361542,712.0469883559743 A 194.5708150254827,194.5708150254827 0 0 0 1091.0065536702452,711.9301773018237 Z "/><path class="wedge" fill="url(#hiddenPattern)" d=" M 1091.0065536702452,711.9301773018237 L 1109.8701918114098,838.0464161160397 A 322.09000000000003,322.09000000000003 0 0,1 1108.558963676137,838.2397836178743 L 1090.2144560361542,712.0469883559743 A 194.5708150254827,194.5708150254827 0 0 0 1091.0065536702452,711.9301773018237 Z "/><path class="wedge" fill="rgb(117,209,117)" d=" M 1081.3847737779577,661.4044994655019 L 1105.3232172741123,838.6934135635529 A 322.09000000000003,322.09000000000003 0 0,1 1096.2425276939807,839.788487965917 L 1077.3477521637456,661.8913390378167 A 143.19224110100012,143.19224110100012 0 0 0 1081.3847737779577,661.4044994655019 Z "/><path class="wedge" fill="url(#hiddenPattern)" d=" M 1081.3847737779577,661.4044994655019 L 1105.3232172741123,838.6934135635529 A 322.09000000000003,322.09000000000003 0 0,1 1096.2425276939807,839.788487965917 L 1077.3477521637456,661.8913390378167 A 143.19224110100012,143.19224110100012 0 0 0 1081.3847737779577,661.4044994655019 Z "/><path class="wedge" fill="rgb(101,204,204)" d=" M 1070.7287162522343,599.5721219914792 L 1096.2425276939807,839.788487965917 A 322.09000000000003,322.09000000000003 0 0,1 1065.287560585169,841.5754312043246 L 1062.9899744750317,600.0188578010811 A 80.52250000000001,80.52250000000001 0 0 0 1070.7287162522343,599.5721219914792 Z "/><path class="wedge" fill="url(#hiddenPattern)" d=" M 1070.7287162522343,599.5721219914792 L 1096.2425276939807,839.788487965917 A 322.09000000000003,322.09000000000003 0 0,1 1065.287560585169,841.5754312043246 L 1062.9899744750317,600.0188578010811 A 80.52250000000001,80.52250000000001 0 0 0 1070.7287162522343,599.5721219914792 Z "/><path class="wedge" fill="rgb(152,101,204)" d=" M 1062.9899744750317,600.0188578010811 L 1065.287560585169,841.5754312043246 A 322.09000000000003,322.09000000000003 0 0,1 1062.224112438319,841.59 L 1062.224112438319,600.0225 A 80.52250000000001,80.52250000000001 0 0 0 1062.9899744750317,600.0188578010811 Z "/><path class="wedge" fill="url(#hiddenPattern)" d=" M 1062.9899744750317,600.0188578010811 L 1065.287560585169,841.5754312043246 A 322.09000000000003,322.09000000000003 0 0,1 1062.224112438319,841.59 L 1062.224112438319,600.0225 A 80.52250000000001,80.52250000000001 0 0 0 1062.9899744750317,600.0188578010811 Z "/><circle cx="1062.224112438319" cy="519.5" r="80.52250000000001"/><circle cx="1062.224112438319" cy="519.5" r="322.09000000000003"/><text x="1062.224112438319" y="519.5" text-anchor="middle" style="font-color:black;font-weight:bold" transform="rotate(360,1062.224112438319,519.5)">root</text><path class="line" d=" M 1110.6033772822755,455.1313761261877 A 80.52250000000001,80.52250000000001 0 1 0 1062.224112438319,600.0225"/><line x1="1255.741171814145" y1="262.02550450475087" x2="1110.6033772822755" y2="455.1313761261877"/><text x="1062.224112438319" y="420.17657766969995" text-anchor="middle" style="font-color:black;font-weight:normal" transform="rotate(288.4642068899338,1062.224112438319,519.5)">Bacteria</text><path class="line" d=" M 919.0382256308894,518.1510260577392 A 143.19224110100012,143.19224110100012 0 0 0 1062.224112438319,662.6922411010001"/><line x1="740.148405492191" y1="516.4656804466358" x2="919.0382256308894" y2="518.1510260577392"/><text x="1062.224112438319" y="678.1058132783448" text-anchor="middle" style="font-color:black;font-weight:normal" transform="rotate(45.2698877267057,1062.224112438319,519.5)">Proteobacteria</text><path class="line" d=" M 945.9519831057771,675.5083138815277 A 194.5708150254827,194.5708150254827 0 0 0 1062.224112438319,714.0708150254827"/><line x1="869.7487397478484" y1="777.7541364773552" x2="945.9519831057771" y2="675.5083138815277"/><text x="1062.224112438319" y="726.9348793669138" text-anchor="middle" style="font-color:black;font-weight:normal" transform="rotate(18.34847903272238,1062.224112438319,519.5)">Gammapr...acteria</text><path class="line" d=" M 956.0083826865462,731.8704550130396 A 237.45102949691994,237.45102949691994 0 0 0 1062.224112438319,756.95102949692"/><line x1="918.1479866441696" y1="807.5695021624963" x2="956.0083826865462" y2="731.8704550130396"/><text x="782.453597689859" y="519.5" text-anchor="end" style="font-color:black;font-weight:normal" transform="rotate(-76.71418289991364,1062.224112438319,519.5)">Alteromonadales&#160;&#160;&#160;7%</text><line x1="1372.3141124383192" y1="519.5" x2="1396.3141124383192" y2="519.5" class="tick" transform="rotate(121.17052106323769,1062.224112438319,519.5)"/><text x="724.134112438319" y="519.5" text-anchor="end" style="font-color:black;font-weight:normal" transform="rotate(-58.829478936762314,1062.224112438319,519.5)">14 more</text><path class="line" d=" M 923.4281590369969,712.1620739236583 A 237.45102949691994,237.45102949691994 0 0 0 956.0083826865462,731.8704550130396"/><line x1="873.9546038758737" y1="780.8361058974732" x2="923.4281590369969" y2="712.1620739236583"/><path class="line" d=" M 868.541660250471,538.0717466648279 A 194.5708150254827,194.5708150254827 0 0 0 945.9519831057771,675.5083138815277"/><line x1="741.6046967411924" y1="550.2434282088554" x2="868.541660250471" y2="538.0717466648279"/><text x="1062.224112438319" y="744.0869651554888" text-anchor="middle" style="font-color:black;font-weight:normal" transform="rotate(60.60987429229441,1062.224112438319,519.5)">Alphaproteobacteria</text><path class="line" d=" M 844.3029003348798,613.8044894186646 A 237.45102949691994,237.45102949691994 0 0 0 920.3275139777782,709.8899859616445"/><line x1="766.6252963156575" y1="647.4191463655108" x2="844.3029003348798" y2="613.8044894186646"/><text x="782.453597689859" y="519.5" text-anchor="end" style="font-color:black;font-weight:normal" transform="rotate(-38.35169369542272,1062.224112438319,519.5)">Rhodobacterales&#160;&#160;&#160;8%</text><path class="line" d=" M 836.5991413648713,593.5024583189844 A 237.45102949691994,237.45102949691994 0 0 0 844.3029003348798,613.8044894186646"/><line x1="756.1755470266899" y1="619.8804946664629" x2="836.5991413648713" y2="593.5024583189844"/><text x="782.453597689859" y="519.5" text-anchor="end" style="font-color:black;font-weight:normal" transform="rotate(-20.779627674887248,1062.224112438319,519.5)">Sphingomonadales&#160;&#160;&#160;1%</text><path class="line" d=" M 830.9546707481284,573.3278436262742 A 237.45102949691994,237.45102949691994 0 0 0 836.5991413648713,593.5024583189844"/><line x1="748.5191155309051" y1="592.5146767117368" x2="830.9546707481284" y2="573.3278436262742"/><text x="782.453597689859" y="519.5" text-anchor="end" style="font-color:black;font-weight:normal" transform="rotate(-15.630601669705385,1062.224112438319,519.5)">Rhizobiales&#160;&#160;&#160;1%</text><path class="line" d=" M 827.6780511799659,556.5288611401975 A 237.45102949691994,237.45102949691994 0 0 0 830.9546707481284,573.3278436262742"/><line x1="744.0745511129473" y1="569.7277286812139" x2="827.6780511799659" y2="556.5288611401975"/><text x="782.453597689859" y="519.5" text-anchor="end" style="font-color:black;font-weight:normal" transform="rotate(-11.0368966509932,1062.224112438319,519.5)">Rhodospirillales&#160;&#160;&#160;1%</text><path class="line" d=" M 826.4287804608764,547.4920136252249 A 237.45102949691994,237.45102949691994 0 0 0 827.6780511799659,556.5288611401975"/><line x1="742.3799802081" y1="557.4697139559702" x2="826.4287804608764" y2="547.4920136252249"/><path class="line" d=" M 867.6625216459347,521.3945838639122 A 194.5708150254827,194.5708150254827 0 0 0 868.541660250471,538.0717466648279"/><line x1="740.1493821139807" y1="522.6362695204189" x2="867.6625216459347" y2="521.3945838639122"/><text x="1062.224112438319" y="726.9348793669138" text-anchor="middle" style="font-color:black;font-weight:normal" transform="rotate(86.98243930524902,1062.224112438319,519.5)">delta/e...visions</text><path class="line" d=" M 824.7948840089798,522.7175917385173 A 237.45102949691994,237.45102949691994 0 0 0 825.8572263692586,542.1646548432344"/><line x1="740.1636844552183" y1="523.8644962300426" x2="824.7948840089798" y2="522.7175917385173"/><text x="782.453597689859" y="519.5" text-anchor="end" style="font-color:black;font-weight:normal" transform="rotate(-3.126811246521429,1062.224112438319,519.5)">Deltaproteobacteria&#160;&#160;&#160;1%</text><path class="line" d=" M 824.7843400440906,521.8121190549327 A 237.45102949691994,237.45102949691994 0 0 0 824.7948840089798,522.7175917385173"/><path class="line" d=" M 867.6553536233644,518.6054873457576 A 194.5708150254827,194.5708150254827 0 0 0 867.6625216459347,521.3945838639122"/><line x1="740.1375162625199" y1="518.0192353705914" x2="867.6553536233644" y2="518.6054873457576"/><path class="line" d=" M 1076.3214285103093,377.00339094879007 A 143.19224110100012,143.19224110100012 0 0 0 919.0382256308894,518.1510260577392"/><line x1="1093.9339627676022" y1="198.97472253799623" x2="1076.3214285103093" y2="377.00339094879007"/><text x="1062.224112438319" y="340.3427571518621" text-anchor="middle" style="font-color:black;font-weight:normal" transform="rotate(318.09485653967954,1062.224112438319,519.5)">Terrabacteria group</text><path class="line" d=" M 1060.7665052355587,324.93464480816976 A 194.5708150254827,194.5708150254827 0 0 0 867.6619316800942,517.6670029229538"/><line x1="1059.8112084070767" y1="197.4190381377129" x2="1060.7665052355587" y2="324.93464480816976"/><text x="1062.224112438319" y="294.91303484451123" text-anchor="middle" style="font-color:black;font-weight:normal" transform="rotate(315.0552730064294,1062.224112438319,519.5)">Cyanobacteria/Melainabacteria group</text><path class="line" d=" M 1060.4452725293006,282.05563359446654 A 237.45102949691994,237.45102949691994 0 0 0 824.7836200594611,517.2630404490392"/><text x="782.453597689859" y="519.5" text-anchor="end" style="font-color:black;font-weight:normal" transform="rotate(45.05527300642933,1062.224112438319,519.5)">Cyanobacteria&#160;&#160;&#160;25%</text><path class="line" d=" M 1060.4452725293006,282.05563359446654 A 237.45102949691994,237.45102949691994 0 0 0 1060.4452725293006,282.05563359446654"/><line x1="1372.3141124383192" y1="519.5" x2="1396.3141124383192" y2="519.5" class="tick" transform="rotate(272.6103540926975,1062.224112438319,519.5)"/><text x="1400.3141124383192" y="519.5" text-anchor="start" style="font-color:black;font-weight:normal" transform="rotate(272.6103540926975,1062.224112438319,519.5)">5 more</text><path class="line" d=" M 1081.379663442401,325.87441562280407 A 194.5708150254827,194.5708150254827 0 0 0 1060.7665052355587,324.93464480816976"/><path class="line" d=" M 1112.6262975160985,385.4715043324286 A 143.19224110100012,143.19224110100012 0 0 0 1076.3214285103093,377.00339094879007"/><line x1="1175.5964548702764" y1="218.02250486729355" x2="1112.6262975160985" y2="385.4715043324286"/><text x="1062.224112438319" y="360.8941867216551" text-anchor="middle" style="font-color:black;font-weight:normal" transform="rotate(373.12949812877844,1062.224112438319,519.5)">enviro...amples</text><path class="line" d=" M 1129.0997153434714,336.7831266802297 A 194.5708150254827,194.5708150254827 0 0 0 1081.379663442401,325.87441562280407"/><line x1="1172.9291168702503" y1="217.03286113409587" x2="1129.0997153434714" y2="336.7831266802297"/><text x="1320.5545199510602" y="519.5" text-anchor="start" style="font-color:black;font-weight:normal" transform="rotate(282.8764513962192,1062.224112438319,519.5)">4%&#160;&#160;&#160;uncultured bacterium</text><path class="line" d=" M 1130.711023141334,337.38095892510887 A 194.5708150254827,194.5708150254827 0 0 0 1129.0997153434714,336.7831266802297"/><path class="line" d=" M 1146.3065616074018,403.594177655928 A 143.19224110100012,143.19224110100012 0 0 0 1112.6262975160985,385.4715043324286"/><line x1="1251.3552821486078" y1="258.7868074990873" x2="1146.3065616074018" y2="403.594177655928"/><text x="1062.224112438319" y="340.3427571518621" text-anchor="middle" style="font-color:black;font-weight:normal" transform="rotate(388.28380193839365,1062.224112438319,519.5)">FCB group</text><path class="line" d=" M 1176.3953179847895,361.9476662066024 A 194.5708150254827,194.5708150254827 0 0 0 1130.711023141334,337.38095892510887"/><line x1="1251.2216431812853" y1="258.6899130151184" x2="1176.3953179847895" y2="361.9476662066024"/><text x="1062.224112438319" y="312.06512063308617" text-anchor="middle" style="font-color:black;font-weight:normal" transform="rotate(388.26912004606083,1062.224112438319,519.5)">Bacteroidetes/Chlorobi group</text><path class="line" d=" M 1200.9416445236684,326.7814547032455 A 237.45102949691994,237.45102949691994 0 0 0 1145.8044143009836,297.2449110825738"/><line x1="1250.3872465549885" y1="258.08729361526383" x2="1200.9416445236684" y2="326.7814547032455"/><text x="1341.994627186779" y="519.5" text-anchor="start" style="font-color:black;font-weight:normal" transform="rotate(298.1775741291623,1062.224112438319,519.5)">4%&#160;&#160;&#160;Bacteroidetes</text><path class="line" d=" M 1201.5567779892308,327.22571747728466 A 237.45102949691994,237.45102949691994 0 0 0 1200.9416445236684,326.7814547032455"/><path class="line" d=" M 1176.4760477273803,362.0061990350581 A 194.5708150254827,194.5708150254827 0 0 0 1176.3953179847895,361.9476662066024"/><path class="line" d=" M 1148.2564059690087,405.0340121198607 A 143.19224110100012,143.19224110100012 0 0 0 1146.3065616074018,403.594177655928"/><path class="line" d=" M 1070.7287162522343,599.5721219914792 A 80.52250000000001,80.52250000000001 0 0 0 1110.6033772822755,455.1313761261877"/><line x1="1096.2425276939807" y1="839.788487965917" x2="1070.7287162522343" y2="599.5721219914792"/><text x="1062.224112438319" y="643.8913187707001" text-anchor="middle" style="font-color:black;font-weight:normal" transform="rotate(285.4328279435755,1062.224112438319,519.5)">Archaea</text><path class="line" d=" M 1081.3847737779577,661.4044994655019 A 143.19224110100012,143.19224110100012 0 0 0 1148.2564059690087,405.0340121198607"/><line x1="1105.3232172741123" y1="838.6934135635529" x2="1081.3847737779577" y2="661.4044994655019"/><text x="1062.224112438319" y="678.1058132783448" text-anchor="middle" style="font-color:black;font-weight:normal" transform="rotate(284.61927838019386,1062.224112438319,519.5)">Euryarchaeota</text><path class="line" d=" M 1091.0065536702452,711.9301773018237 A 194.5708150254827,194.5708150254827 0 0 0 1179.1255125565754,363.9626581490093"/><line x1="1109.8701918114098" y1="838.0464161160397" x2="1091.0065536702452" y2="711.9301773018237"/><text x="1062.224112438319" y="744.0869651554888" text-anchor="middle" style="font-color:black;font-weight:normal" transform="rotate(284.21077631705214,1062.224112438319,519.5)">Stenosarchaea group</text><path class="line" d=" M 1099.1009435874341,754.070012434554 A 237.45102949691994,237.45102949691994 0 0 0 1204.8886626385936,329.68478057515915"/><line x1="1112.2456203255804" y1="837.6820498530435" x2="1099.1009435874341" y2="754.070012434554"/><text x="1341.994627186779" y="519.5" text-anchor="start" style="font-color:black;font-weight:normal" transform="rotate(373.9970252375012,1062.224112438319,519.5)">37%&#160;&#160;&#160;Halobacteria</text><path class="line" d=" M 1097.34973136046,754.3386303496162 A 237.45102949691994,237.45102949691994 0 0 0 1099.1009435874341,754.070012434554"/><path class="line" d=" M 1090.2144560361542,712.0469883559743 A 194.5708150254827,194.5708150254827 0 0 0 1091.0065536702452,711.9301773018237"/><line x1="1108.558963676137" y1="838.2397836178743" x2="1090.2144560361542" y2="712.0469883559743"/><path class="line" d=" M 1077.3477521637456,661.8913390378167 A 143.19224110100012,143.19224110100012 0 0 0 1081.3847737779577,661.4044994655019"/><path class="line" d=" M 1062.9899744750317,600.0188578010811 A 80.52250000000001,80.52250000000001 0 0 0 1070.7287162522343,599.5721219914792"/><line x1="1065.287560585169" y1="841.5754312043246" x2="1062.9899744750317" y2="600.0188578010811"/><text x="1263.5303624383191" y="519.5" text-anchor="start" style="font-color:black;font-weight:normal" transform="rotate(446.69614240475966,1062.224112438319,519.5)">2%&#160;&#160;&#160;Eukaryota</text><path class="line" d=" M 1062.224112438319,600.0225 A 80.52250000000001,80.52250000000001 0 0 0 1062.9899744750317,600.0188578010811"/><line x1="1062.224112438319" y1="841.59" x2="1062.224112438319" y2="600.0225"/></svg>