<?xml version="1.0" standalone="no"?><!DOCTYPE svg PUBLIC "-//W3C//DTD SVG 1.1//EN" 	"http://www.w3.org/Graphics/SVG/1.1/DTD/svg11.dtd"><svg width="1920" height="1039" version="1.1"	xmlns="http://www.w3.org/2000/svg"><title>Rec@ntrifuge (snapshot) - SHARED_SUMMARY - root</title><defs>	<style type="text/css">	@import url("https://fonts.googleapis.com/css?family=Ubuntu");	text {font-size: 16px; font-family: Ubuntu; dominant-baseline:central}	path {stroke-width:0.39999999999999997;}	path.wedge {stroke:none}	path.line {fill:none;stroke:black;}	line {stroke:black;stroke-width:0.39999999999999997;}	line.tick {stroke-width:0.7999999999999999;}	line.pattern {stroke-width:0.26666666666666666;}	circle {fill:none;stroke:black;stroke-width:0.39999999999999997;}	rect {stroke:black;stroke-width:0.39999999999999997;}	.highlight {stroke:black;stroke-width:2;}	.searchHighlight {fill:rgb(255, 255, 100);stroke:none;}	</style><pattern id="hiddenPattern" patternUnits="userSpaceOnUse" x="0" y="0" width="9.6" height="9.6"><line class="pattern" x1="0" y1="0" x2="4.8" y2="4.8"/><line class="pattern" x1="4.8" y1="9.6" x2="9.6" y2="4.8"/></pattern></defs><path class="wedge" fill="rgb(209,117,117)" d=" M 1075.9567549023486,600.0225 L 1075.9567549023486,841.59 A 322.09000000000003,322.09000000000003 0 1,1 1223.8995784315034,805.6029343893931 L 1112.9424607846374,591.0257335973482 A 80.52250000000001,80.52250000000001 0 1 0 1075.9567549023486,600.0225 Z "/><path class="wedge" fill="rgb(214,132,132)" d=" M 1075.9567549023486,662.6922411010001 L 1075.9567549023486,841.59 A 322.09000000000003,322.09000000000003 0 0,1 759.7605655962988,458.16536077930596 L 935.3847378439818,492.23232808490644 A 143.19224110100012,143.19224110100012 0 0 0 1075.9567549023486,662.6922411010001 Z "/><path class="wedge" fill="rgb(219,147,147)" d=" M 1075.9567549023486,714.0708150254827 L 1075.9567549023486,841.59 A 322.09000000000003,322.09000000000003 0 0,1 755.2740191909643,489.42424370589396 L 882.2360518318853,501.33158615712375 A 194.5708150254827,194.5708150254827 0 0 0 1075.9567549023486,714.0708150254827 Z "/><path class="wedge" fill="rgb(224,163,163)" d=" M 1075.9567549023486,756.95102949692 L 1075.9567549023486,841.59 A 322.09000000000003,322.09000000000003 0 0,1 755.2519102935508,489.6609191755698 L 839.5268889735437,497.50204768542096 A 237.45102949691994,237.45102949691994 0 0 0 1075.9567549023486,756.95102949692 Z "/><path class="wedge" fill="rgb(224,171,163)" d=" M 839.5268889735437,497.50204768542096 L 755.2519102935508,489.6609191755698 A 322.09000000000003,322.09000000000003 0 0,1 755.2740191909643,489.42424370589396 L 839.5431880838914,497.3275659134591 A 237.45102949691994,237.45102949691994 0 0 0 839.5268889735437,497.50204768542096 Z "/><path class="wedge" fill="url(#hiddenPattern)" d=" M 839.5268889735437,497.50204768542096 L 755.2519102935508,489.6609191755698 A 322.09000000000003,322.09000000000003 0 0,1 755.2740191909643,489.42424370589396 L 839.5431880838914,497.3275659134591 A 237.45102949691994,237.45102949691994 0 0 0 839.5268889735437,497.50204768542096 Z "/><path class="wedge" fill="rgb(214,144,132)" d=" M 882.2360518318853,501.33158615712375 L 755.2740191909643,489.42424370589396 A 322.09000000000003,322.09000000000003 0 0,1 759.7605655962988,458.16536077930596 L 884.9463222244327,482.4484593049633 A 194.5708150254827,194.5708150254827 0 0 0 882.2360518318853,501.33158615712375 Z "/><path class="wedge" fill="url(#hiddenPattern)" d=" M 882.2360518318853,501.33158615712375 L 755.2740191909643,489.42424370589396 A 322.09000000000003,322.09000000000003 0 0,1 759.7605655962988,458.16536077930596 L 884.9463222244327,482.4484593049633 A 194.5708150254827,194.5708150254827 0 0 0 882.2360518318853,501.33158615712375 Z "/><path class="wedge" fill="rgb(214,144,132)" d=" M 935.3847378439818,492.23232808490644 L 759.7605655962988,458.16536077930596 A 322.09000000000003,322.09000000000003 0 0,1 1393.8896397071837,571.0814778740922 L 1217.300858397988,542.4316880874691 A 143.19224110100012,143.19224110100012 0 0 0 935.3847378439818,492.23232808490644 Z "/><path class="wedge" fill="rgb(214,144,132)" d=" M 1268.2664542990726,549.0767066730264 L 1394.30373345912,568.46089606793 A 322.09000000000003,322.09000000000003 0 0,1 1393.8896397071837,571.0814778740922 L 1268.0163050898107,550.6597695991214 A 194.5708150254827,194.5708150254827 0 0 0 1268.2664542990726,549.0767066730264 Z "/><path class="wedge" fill="rgb(219,158,147)" d=" M 884.9463222244327,482.4484593049633 L 759.7605655962988,458.16536077930596 A 322.09000000000003,322.09000000000003 0 0,1 1235.0677066730207,239.4541588835304 L 1172.0738264211784,350.3275713293542 A 194.5708150254827,194.5708150254827 0 0 0 884.9463222244327,482.4484593049633 Z "/><path class="wedge" fill="rgb(219,158,147)" d=" M 1183.4332731220443,307.76481293720076 L 1221.743074829973,232.29220584747293 A 322.09000000000003,322.09000000000003 0 0,1 1235.0677066730207,239.4541588835304 L 1193.2564515777526,313.04474438996374 A 237.45102949691994,237.45102949691994 0 0 0 1183.4332731220443,307.76481293720076 Z "/><path class="wedge" fill="rgb(224,172,163)" d=" M 842.8507575918934,474.28290779975794 L 759.7605655962988,458.16536077930596 A 322.09000000000003,322.09000000000003 0 0,1 1099.4075248239437,198.2648377121763 L 1093.2451198325798,282.67917353580094 A 237.45102949691994,237.45102949691994 0 0 0 842.8507575918934,474.28290779975794 Z "/><path class="wedge" fill="rgb(224,179,163)" d=" M 1093.2451198325798,282.67917353580094 L 1099.4075248239437,198.2648377121763 A 322.09000000000003,322.09000000000003 0 0,1 1143.0620317102623,204.47801675988813 L 1125.4280736726143,287.2596503010773 A 237.45102949691994,237.45102949691994 0 0 0 1093.2451198325798,282.67917353580094 Z "/><path class="wedge" fill="rgb(224,180,163)" d=" M 1125.4280736726143,287.2596503010773 L 1143.0620317102623,204.47801675988813 A 322.09000000000003,322.09000000000003 0 0,1 1185.6391198887725,216.660526167765 L 1156.8167334291059,296.24083382355946 A 237.45102949691994,237.45102949691994 0 0 0 1125.4280736726143,287.2596503010773 Z "/><path class="wedge" fill="rgb(224,181,163)" d=" M 1156.8167334291059,296.24083382355946 L 1185.6391198887725,216.660526167765 A 322.09000000000003,322.09000000000003 0 0,1 1206.4234225331534,225.01669531650333 L 1172.139326680321,302.4011646845558 A 237.45102949691994,237.45102949691994 0 0 0 1156.8167334291059,296.24083382355946 Z "/><path class="wedge" fill="rgb(224,181,163)" d=" M 1172.139326680321,302.4011646845558 L 1206.4234225331534,225.01669531650333 A 322.09000000000003,322.09000000000003 0 0,1 1221.743074829973,232.29220584747293 L 1183.4332731220443,307.76481293720076 A 237.45102949691994,237.45102949691994 0 0 0 1172.139326680321,302.4011646845558 Z "/><path class="wedge" fill="url(#hiddenPattern)" d=" M 1172.139326680321,302.4011646845558 L 1206.4234225331534,225.01669531650333 A 322.09000000000003,322.09000000000003 0 0,1 1221.743074829973,232.29220584747293 L 1183.4332731220443,307.76481293720076 A 237.45102949691994,237.45102949691994 0 0 0 1172.139326680321,302.4011646845558 Z "/><path class="wedge" fill="rgb(219,170,147)" d=" M 1172.0738264211784,350.3275713293542 L 1235.0677066730207,239.4541588835304 A 322.09000000000003,322.09000000000003 0 0,1 1397.8441377482873,530.9228220940429 L 1270.4051712665755,526.4003936934677 A 194.5708150254827,194.5708150254827 0 0 0 1172.0738264211784,350.3275713293542 Z "/><path class="wedge" fill="rgb(219,170,147)" d=" M 1313.4062297489131,520.359246319682 L 1398.0446460998135,520.6655230457106 A 322.09000000000003,322.09000000000003 0 0,1 1397.8441377482873,530.9228220940429 L 1313.2584110817934,527.9211272190712 A 237.45102949691994,237.45102949691994 0 0 0 1313.4062297489131,520.359246319682 Z "/><path class="wedge" fill="rgb(224,182,163)" d=" M 1193.2564515777526,313.04474438996374 L 1235.0677066730207,239.4541588835304 A 322.09000000000003,322.09000000000003 0 0,1 1378.2599774628195,408.3481681232628 L 1298.8205861831095,437.55670182371443 A 237.45102949691994,237.45102949691994 0 0 0 1193.2564515777526,313.04474438996374 Z "/><path class="wedge" fill="rgb(224,186,163)" d=" M 1298.8205861831095,437.55670182371443 L 1378.2599774628195,408.3481681232628 A 322.09000000000003,322.09000000000003 0 0,1 1386.5900852022123,434.35951487796257 L 1304.9617040648789,456.73277393245684 A 237.45102949691994,237.45102949691994 0 0 0 1298.8205861831095,437.55670182371443 Z "/><path class="wedge" fill="rgb(224,186,163)" d=" M 1304.9617040648789,456.73277393245684 L 1386.5900852022123,434.35951487796257 A 322.09000000000003,322.09000000000003 0 0,1 1393.4035158030536,465.0066784490913 L 1309.9846979814101,479.32646060737693 A 237.45102949691994,237.45102949691994 0 0 0 1304.9617040648789,456.73277393245684 Z "/><path class="wedge" fill="url(#hiddenPattern)" d=" M 1304.9617040648789,456.73277393245684 L 1386.5900852022123,434.35951487796257 A 322.09000000000003,322.09000000000003 0 0,1 1393.4035158030536,465.0066784490913 L 1309.9846979814101,479.32646060737693 A 237.45102949691994,237.45102949691994 0 0 0 1304.9617040648789,456.73277393245684 Z "/><path class="wedge" fill="rgb(224,186,163)" d=" M 1309.9846979814101,479.32646060737693 L 1393.4035158030536,465.0066784490913 A 322.09000000000003,322.09000000000003 0 0,1 1398.033435861659,516.5708905389872 L 1313.3979653427202,517.3406033809598 A 237.45102949691994,237.45102949691994 0 0 0 1309.9846979814101,479.32646060737693 Z "/><path class="wedge" fill="rgb(224,187,163)" d=" M 1313.3979653427202,517.3406033809598 L 1398.033435861659,516.5708905389872 A 322.09000000000003,322.09000000000003 0 0,1 1398.0446460998135,520.6655230457106 L 1313.4062297489131,520.359246319682 A 237.45102949691994,237.45102949691994 0 0 0 1313.3979653427202,517.3406033809598 Z "/><path class="wedge" fill="url(#hiddenPattern)" d=" M 1313.3979653427202,517.3406033809598 L 1398.033435861659,516.5708905389872 A 322.09000000000003,322.09000000000003 0 0,1 1398.0446460998135,520.6655230457106 L 1313.4062297489131,520.359246319682 A 237.45102949691994,237.45102949691994 0 0 0 1313.3979653427202,517.3406033809598 Z "/><path class="wedge" fill="rgb(219,176,147)" d=" M 1270.4051712665755,526.4003936934677 L 1397.8441377482873,530.9228220940429 A 322.09000000000003,322.09000000000003 0 0,1 1395.3947506393213,560.7472420841189 L 1268.9255250617744,544.4169782044162 A 194.5708150254827,194.5708150254827 0 0 0 1270.4051712665755,526.4003936934677 Z "/><path class="wedge" fill="rgb(224,188,163)" d=" M 1313.2584110817934,527.9211272190712 L 1397.8441377482873,530.9228220940429 A 322.09000000000003,322.09000000000003 0 0,1 1395.5628713497274,559.4236575156214 L 1311.5766170028253,548.9324989237999 A 237.45102949691994,237.45102949691994 0 0 0 1313.2584110817934,527.9211272190712 Z "/><path class="wedge" fill="rgb(224,188,163)" d=" M 1311.5766170028253,548.9324989237999 L 1395.5628713497274,559.4236575156214 A 322.09000000000003,322.09000000000003 0 0,1 1395.3947506393213,560.7472420841189 L 1311.4526751363728,549.9082712806443 A 237.45102949691994,237.45102949691994 0 0 0 1311.5766170028253,548.9324989237999 Z "/><path class="wedge" fill="url(#hiddenPattern)" d=" M 1311.5766170028253,548.9324989237999 L 1395.5628713497274,559.4236575156214 A 322.09000000000003,322.09000000000003 0 0,1 1395.3947506393213,560.7472420841189 L 1311.4526751363728,549.9082712806443 A 237.45102949691994,237.45102949691994 0 0 0 1311.5766170028253,548.9324989237999 Z "/><path class="wedge" fill="rgb(214,166,132)" d=" M 1268.9255250617744,544.4169782044162 L 1395.3947506393213,560.7472420841189 A 322.09000000000003,322.09000000000003 0 0,1 1394.30373345912,568.46089606793 L 1268.2664542990726,549.0767066730264 A 194.5708150254827,194.5708150254827 0 0 0 1268.9255250617744,544.4169782044162 Z "/><path class="wedge" fill="url(#hiddenPattern)" d=" M 1268.9255250617744,544.4169782044162 L 1395.3947506393213,560.7472420841189 A 322.09000000000003,322.09000000000003 0 0,1 1394.30373345912,568.46089606793 L 1268.2664542990726,549.0767066730264 A 194.5708150254827,194.5708150254827 0 0 0 1268.9255250617744,544.4169782044162 Z "/><path class="wedge" fill="rgb(214,166,132)" d=" M 1217.300858397988,542.4316880874691 L 1393.8896397071837,571.0814778740922 A 322.09000000000003,322.09000000000003 0 0,1 1341.2853542057105,702.0998425292751 L 1193.9144585331278,600.6788030564644 A 143.19224110100012,143.19224110100012 0 0 0 1217.300858397988,542.4316880874691 Z "/><path class="wedge" fill="rgb(219,177,147)" d=" M 1268.0163050898107,550.6597695991214 L 1393.8896397071837,571.0814778740922 A 322.09000000000003,322.09000000000003 0 0,1 1344.1895198453606,697.8063428794021 L 1237.9930419385823,627.2127835644026 A 194.5708150254827,194.5708150254827 0 0 0 1268.0163050898107,550.6597695991214 Z "/><path class="wedge" fill="rgb(219,180,147)" d=" M 1237.9930419385823,627.2127835644026 L 1344.1895198453606,697.8063428794021 A 322.09000000000003,322.09000000000003 0 0,1 1341.2853542057105,702.0998425292751 L 1236.2386693238607,629.806436661945 A 194.5708150254827,194.5708150254827 0 0 0 1237.9930419385823,627.2127835644026 Z "/><path class="wedge" fill="url(#hiddenPattern)" d=" M 1237.9930419385823,627.2127835644026 L 1344.1895198453606,697.8063428794021 A 322.09000000000003,322.09000000000003 0 0,1 1341.2853542057105,702.0998425292751 L 1236.2386693238607,629.806436661945 A 194.5708150254827,194.5708150254827 0 0 0 1237.9930419385823,627.2127835644026 Z "/><path class="wedge" fill="rgb(214,169,132)" d=" M 1193.9144585331278,600.6788030564644 L 1341.2853542057105,702.0998425292751 A 322.09000000000003,322.09000000000003 0 0,1 1233.933017590178,800.187492644731 L 1146.1886003338448,644.2858397367802 A 143.19224110100012,143.19224110100012 0 0 0 1193.9144585331278,600.6788030564644 Z "/><path class="wedge" fill="rgb(219,180,147)" d=" M 1236.2386693238607,629.806436661945 L 1341.2853542057105,702.0998425292751 A 322.09000000000003,322.09000000000003 0 0,1 1233.933017590178,800.187492644731 L 1171.3883739710893,689.060042880389 A 194.5708150254827,194.5708150254827 0 0 0 1236.2386693238607,629.806436661945 Z "/><path class="wedge" fill="rgb(224,191,163)" d=" M 1271.562172827646,654.1161650301215 L 1341.2853542057105,702.0998425292751 A 322.09000000000003,322.09000000000003 0 0,1 1233.933017590178,800.187492644731 L 1192.41993665683,726.4282936303533 A 237.45102949691994,237.45102949691994 0 0 0 1271.562172827646,654.1161650301215 Z "/><path class="wedge" fill="rgb(224,193,163)" d=" M 1192.41993665683,726.4282936303533 L 1233.933017590178,800.187492644731 A 322.09000000000003,322.09000000000003 0 0,1 1233.933017590178,800.187492644731 L 1192.41993665683,726.4282936303533 A 237.45102949691994,237.45102949691994 0 0 0 1192.41993665683,726.4282936303533 Z "/><path class="wedge" fill="url(#hiddenPattern)" d=" M 1192.41993665683,726.4282936303533 L 1233.933017590178,800.187492644731 A 322.09000000000003,322.09000000000003 0 0,1 1233.933017590178,800.187492644731 L 1192.41993665683,726.4282936303533 A 237.45102949691994,237.45102949691994 0 0 0 1192.41993665683,726.4282936303533 Z "/><path class="wedge" fill="rgb(219,183,147)" d=" M 1171.3883739710893,689.060042880389 L 1233.933017590178,800.187492644731 A 322.09000000000003,322.09000000000003 0 0,1 1233.933017590178,800.187492644731 L 1171.3883739710893,689.060042880389 A 194.5708150254827,194.5708150254827 0 0 0 1171.3883739710893,689.060042880389 Z "/><path class="wedge" fill="url(#hiddenPattern)" d=" M 1171.3883739710893,689.060042880389 L 1233.933017590178,800.187492644731 A 322.09000000000003,322.09000000000003 0 0,1 1233.933017590178,800.187492644731 L 1171.3883739710893,689.060042880389 A 194.5708150254827,194.5708150254827 0 0 0 1171.3883739710893,689.060042880389 Z "/><path class="wedge" fill="rgb(209,163,117)" d=" M 1146.1886003338448,644.2858397367802 L 1233.933017590178,800.187492644731 A 322.09000000000003,322.09000000000003 0 0,1 1223.8995784315034,805.6029343893931 L 1141.7280127990527,646.6933942711341 A 143.19224110100012,143.19224110100012 0 0 0 1146.1886003338448,644.2858397367802 Z "/><path class="wedge" fill="url(#hiddenPattern)" d=" M 1146.1886003338448,644.2858397367802 L 1233.933017590178,800.187492644731 A 322.09000000000003,322.09000000000003 0 0,1 1223.8995784315034,805.6029343893931 L 1141.7280127990527,646.6933942711341 A 143.19224110100012,143.19224110100012 0 0 0 1146.1886003338448,644.2858397367802 Z "/><path class="wedge" fill="rgb(163,209,117)" d=" M 1112.9424607846374,591.0257335973482 L 1223.8995784315034,805.6029343893931 A 322.09000000000003,322.09000000000003 0 0,1 1136.6815433447237,835.8138760292202 L 1091.1379520129424,598.578469007305 A 80.52250000000001,80.52250000000001 0 0 0 1112.9424607846374,591.0257335973482 Z "/><path class="wedge" fill="rgb(173,214,132)" d=" M 1141.7280127990527,646.6933942711341 L 1223.8995784315034,805.6029343893931 A 322.09000000000003,322.09000000000003 0 0,1 1138.5705835032848,835.4453695940686 L 1103.7931187797801,659.9605096018456 A 143.19224110100012,143.19224110100012 0 0 0 1141.7280127990527,646.6933942711341 Z "/><path class="wedge" fill="rgb(173,214,132)" d=" M 1114.0354547219283,710.3083192099625 L 1138.9917399965013,835.3616132963612 A 322.09000000000003,322.09000000000003 0 0,1 1138.5705835032848,835.4453695940686 L 1113.7810389929755,710.3589154132239 A 194.5708150254827,194.5708150254827 0 0 0 1114.0354547219283,710.3083192099625 Z "/><path class="wedge" fill="rgb(183,219,147)" d=" M 1165.3272903155523,692.331448121104 L 1223.8995784315034,805.6029343893931 A 322.09000000000003,322.09000000000003 0 0,1 1139.3150520147415,835.2969193754393 L 1114.23076374393,710.2692383663444 A 194.5708150254827,194.5708150254827 0 0 0 1165.3272903155523,692.331448121104 Z "/><path class="wedge" fill="rgb(193,224,163)" d=" M 1185.02308963388,730.4206628981065 L 1223.8995784315034,805.6029343893931 A 322.09000000000003,322.09000000000003 0 0,1 1143.481953171515,834.4322398528132 L 1125.7376479632856,751.6741891236034 A 237.45102949691994,237.45102949691994 0 0 0 1185.02308963388,730.4206628981065 Z "/><path class="wedge" fill="rgb(165,224,163)" d=" M 1125.7376479632856,751.6741891236034 L 1143.481953171515,834.4322398528132 A 322.09000000000003,322.09000000000003 0 0,1 1139.3150520147415,835.2969193754393 L 1122.6657271663414,752.3116477309259 A 237.45102949691994,237.45102949691994 0 0 0 1125.7376479632856,751.6741891236034 Z "/><path class="wedge" fill="url(#hiddenPattern)" d=" M 1125.7376479632856,751.6741891236034 L 1143.481953171515,834.4322398528132 A 322.09000000000003,322.09000000000003 0 0,1 1139.3150520147415,835.2969193754393 L 1122.6657271663414,752.3116477309259 A 237.45102949691994,237.45102949691994 0 0 0 1125.7376479632856,751.6741891236034 Z "/><path class="wedge" fill="rgb(134,214,132)" d=" M 1114.23076374393,710.2692383663444 L 1139.3150520147415,835.2969193754393 A 322.09000000000003,322.09000000000003 0 0,1 1138.9917399965013,835.3616132963612 L 1114.0354547219283,710.3083192099625 A 194.5708150254827,194.5708150254827 0 0 0 1114.23076374393,710.2692383663444 Z "/><path class="wedge" fill="url(#hiddenPattern)" d=" M 1114.23076374393,710.2692383663444 L 1139.3150520147415,835.2969193754393 A 322.09000000000003,322.09000000000003 0 0,1 1138.9917399965013,835.3616132963612 L 1114.0354547219283,710.3083192099625 A 194.5708150254827,194.5708150254827 0 0 0 1114.23076374393,710.2692383663444 Z "/><path class="wedge" fill="rgb(117,209,117)" d=" M 1103.7931187797801,659.9605096018456 L 1138.5705835032848,835.4453695940686 A 322.09000000000003,322.09000000000003 0 0,1 1136.6815433447237,835.8138760292202 L 1102.9533041508437,660.1243372969293 A 143.19224110100012,143.19224110100012 0 0 0 1103.7931187797801,659.9605096018456 Z "/><path class="wedge" fill="url(#hiddenPattern)" d=" M 1103.7931187797801,659.9605096018456 L 1138.5705835032848,835.4453695940686 A 322.09000000000003,322.09000000000003 0 0,1 1136.6815433447237,835.8138760292202 L 1102.9533041508437,660.1243372969293 A 143.19224110100012,143.19224110100012 0 0 0 1103.7931187797801,659.9605096018456 Z "/><path class="wedge" fill="rgb(117,209,209)" d=" M 1091.1379520129424,598.578469007305 L 1136.6815433447237,835.8138760292202 A 322.09000000000003,322.09000000000003 0 0,1 1075.9567549023486,841.59 L 1075.9567549023486,600.0225 A 80.52250000000001,80.52250000000001 0 0 0 1091.1379520129424,598.578469007305 Z "/><path class="wedge" fill="rgb(132,214,214)" d=" M 1102.9533041508437,660.1243372969293 L 1136.6815433447237,835.8138760292202 A 322.09000000000003,322.09000000000003 0 0,1 1097.8853988165029,840.842656172638 L 1085.7056190905369,662.359992855128 A 143.19224110100012,143.19224110100012 0 0 0 1102.9533041508437,660.1243372969293 Z "/><path class="wedge" fill="rgb(147,219,219)" d=" M 1112.639891850043,710.5815258557386 L 1136.6815433447237,835.8138760292202 A 322.09000000000003,322.09000000000003 0 0,1 1103.817827584426,840.3827336099654 L 1092.7873041874427,713.3415194700109 A 194.5708150254827,194.5708150254827 0 0 0 1112.639891850043,710.5815258557386 Z "/><path class="wedge" fill="rgb(147,219,219)" d=" M 1100.4525470600702,755.684139128166 L 1109.1840258592129,839.8715289546797 A 322.09000000000003,322.09000000000003 0 0,1 1103.817827584426,840.3827336099654 L 1096.49648103867,756.0610091697109 A 237.45102949691994,237.45102949691994 0 0 0 1100.4525470600702,755.684139128166 Z "/><path class="wedge" fill="rgb(163,224,224)" d=" M 1120.7242532153189,752.6927582579385 L 1136.6815433447237,835.8138760292202 A 322.09000000000003,322.09000000000003 0 0,1 1132.5347249829576,836.5818528417508 L 1117.667137846515,753.258925741453 A 237.45102949691994,237.45102949691994 0 0 0 1120.7242532153189,752.6927582579385 Z "/><path class="wedge" fill="url(#hiddenPattern)" d=" M 1120.7242532153189,752.6927582579385 L 1136.6815433447237,835.8138760292202 A 322.09000000000003,322.09000000000003 0 0,1 1132.5347249829576,836.5818528417508 L 1117.667137846515,753.258925741453 A 237.45102949691994,237.45102949691994 0 0 0 1120.7242532153189,752.6927582579385 Z "/><path class="wedge" fill="rgb(163,222,224)" d=" M 1117.667137846515,753.258925741453 L 1132.5347249829576,836.5818528417508 A 322.09000000000003,322.09000000000003 0 0,1 1109.1840258592129,839.8715289546797 L 1100.4525470600702,755.684139128166 A 237.45102949691994,237.45102949691994 0 0 0 1117.667137846515,753.258925741453 Z "/><path class="wedge" fill="rgb(163,213,224)" d=" M 1100.4525470600702,755.684139128166 L 1109.1840258592129,839.8715289546797 A 322.09000000000003,322.09000000000003 0 0,1 1109.1840258592129,839.8715289546797 L 1100.4525470600702,755.684139128166 A 237.45102949691994,237.45102949691994 0 0 0 1100.4525470600702,755.684139128166 Z "/><path class="wedge" fill="url(#hiddenPattern)" d=" M 1100.4525470600702,755.684139128166 L 1109.1840258592129,839.8715289546797 A 322.09000000000003,322.09000000000003 0 0,1 1109.1840258592129,839.8715289546797 L 1100.4525470600702,755.684139128166 A 237.45102949691994,237.45102949691994 0 0 0 1100.4525470600702,755.684139128166 Z "/><path class="wedge" fill="rgb(132,188,214)" d=" M 1092.7873041874427,713.3415194700109 L 1103.817827584426,840.3827336099654 A 322.09000000000003,322.09000000000003 0 0,1 1097.8853988165029,840.842656172638 L 1089.2035931114845,713.6193533297017 A 194.5708150254827,194.5708150254827 0 0 0 1092.7873041874427,713.3415194700109 Z "/><path class="wedge" fill="url(#hiddenPattern)" d=" M 1092.7873041874427,713.3415194700109 L 1103.817827584426,840.3827336099654 A 322.09000000000003,322.09000000000003 0 0,1 1097.8853988165029,840.842656172638 L 1089.2035931114845,713.6193533297017 A 194.5708150254827,194.5708150254827 0 0 0 1092.7873041874427,713.3415194700109 Z "/><path class="wedge" fill="rgb(117,166,209)" d=" M 1085.7056190905369,662.359992855128 L 1097.8853988165029,840.842656172638 A 322.09000000000003,322.09000000000003 0 0,1 1075.9567549023486,841.59 L 1075.9567549023486,662.6922411010001 A 143.19224110100012,143.19224110100012 0 0 0 1085.7056190905369,662.359992855128 Z "/><path class="wedge" fill="url(#hiddenPattern)" d=" M 1085.7056190905369,662.359992855128 L 1097.8853988165029,840.842656172638 A 322.09000000000003,322.09000000000003 0 0,1 1075.9567549023486,841.59 L 1075.9567549023486,662.6922411010001 A 143.19224110100012,143.19224110100012 0 0 0 1085.7056190905369,662.359992855128 Z "/><path class="wedge" fill="rgb(163,117,209)" d=" M 1075.9567549023486,600.0225 L 1075.9567549023486,841.59 A 322.09000000000003,322.09000000000003 0 0,1 1075.9567549023486,841.59 L 1075.9567549023486,600.0225 A 80.52250000000001,80.52250000000001 0 0 0 1075.9567549023486,600.0225 Z "/><path class="wedge" fill="rgb(173,132,214)" d=" M 1075.9567549023486,662.6922411010001 L 1075.9567549023486,841.59 A 322.09000000000003,322.09000000000003 0 0,1 1075.9567549023486,841.59 L 1075.9567549023486,662.6922411010001 A 143.19224110100012,143.19224110100012 0 0 0 1075.9567549023486,662.6922411010001 Z "/><path class="wedge" fill="url(#hiddenPattern)" d=" M 1075.9567549023486,662.6922411010001 L 1075.9567549023486,841.59 A 322.09000000000003,322.09000000000003 0 0,1 1075.9567549023486,841.59 L 1075.9567549023486,662.6922411010001 A 143.19224110100012,143.19224110100012 0 0 0 1075.9567549023486,662.6922411010001 Z "/><circle cx="1075.9567549023486" cy="519.5" r="80.52250000000001"/><circle cx="1075.9567549023486" cy="519.5" r="322.09000000000003"/><text x="1075.9567549023486" y="519.5" text-anchor="middle" style="font-color:black;font-weight:bold" transform="rotate(360,1075.9567549023486,519.5)">root</text><path class="line" d=" M 1112.9424607846374,591.0257335973482 A 80.52250000000001,80.52250000000001 0 1 0 1075.9567549023486,600.0225"/><line x1="1223.8995784315034" y1="805.6029343893931" x2="1112.9424607846374" y2="591.0257335973482"/><text x="1075.9567549023486" y="420.17657766969995" text-anchor="middle" style="font-color:black;font-weight:normal" transform="rotate(346.32833694548435,1075.9567549023486,519.5)">Bacteria</text><path class="line" d=" M 935.3847378439818,492.23232808490644 A 143.19224110100012,143.19224110100012 0 0 0 1075.9567549023486,662.6922411010001"/><line x1="759.7605655962988" y1="458.16536077930596" x2="935.3847378439818" y2="492.23232808490644"/><text x="1075.9567549023486" y="678.1058132783448" text-anchor="middle" style="font-color:black;font-weight:normal" transform="rotate(50.48885285157848,1075.9567549023486,519.5)">Terrabacteria group</text><path class="line" d=" M 882.2360518318853,501.33158615712375 A 194.5708150254827,194.5708150254827 0 0 0 1075.9567549023486,714.0708150254827"/><line x1="755.2740191909643" y1="489.42424370589396" x2="882.2360518318853" y2="501.33158615712375"/><text x="1075.9567549023486" y="726.9348793669138" text-anchor="middle" style="font-color:black;font-weight:normal" transform="rotate(47.678953031933425,1075.9567549023486,519.5)">Cyanobacteria/Melainabacteria group</text><path class="line" d=" M 839.5268889735437,497.50204768542096 A 237.45102949691994,237.45102949691994 0 0 0 1075.9567549023486,756.95102949692"/><line x1="755.2519102935508" y1="489.6609191755698" x2="839.5268889735437" y2="497.50204768542096"/><text x="796.1862401538885" y="519.5" text-anchor="end" style="font-color:black;font-weight:normal" transform="rotate(-42.34218941816584,1075.9567549023486,519.5)">Cyanobacteria&#160;&#160;&#160;26%</text><path class="line" d=" M 839.5431880838914,497.3275659134591 A 237.45102949691994,237.45102949691994 0 0 0 839.5268889735437,497.50204768542096"/><line x1="1386.0467549023488" y1="519.5" x2="1410.0467549023488" y2="519.5" class="tick" transform="rotate(188.16780588351193,1075.9567549023486,519.5)"/><text x="737.8667549023486" y="519.5" text-anchor="end" style="font-color:black;font-weight:normal" transform="rotate(8.167805883511933,1075.9567549023486,519.5)">4 more</text><path class="line" d=" M 884.9463222244327,482.4484593049633 A 194.5708150254827,194.5708150254827 0 0 0 882.2360518318853,501.33158615712375"/><path class="line" d=" M 1217.300858397988,542.4316880874691 A 143.19224110100012,143.19224110100012 0 0 0 935.3847378439818,492.23232808490644"/><line x1="1393.8896397071837" y1="571.0814778740922" x2="1217.300858397988" y2="542.4316880874691"/><text x="1075.9567549023486" y="340.3427571518621" text-anchor="middle" style="font-color:black;font-weight:normal" transform="rotate(370.0965429441809,1075.9567549023486,519.5)">Proteobacteria</text><path class="line" d=" M 1172.0738264211784,350.3275713293542 A 194.5708150254827,194.5708150254827 0 0 0 884.9463222244327,482.4484593049633"/><line x1="1235.0677066730207" y1="239.4541588835304" x2="1172.0738264211784" y2="350.3275713293542"/><text x="1075.9567549023486" y="294.91303484451123" text-anchor="middle" style="font-color:black;font-weight:normal" transform="rotate(335.2906139646262,1075.9567549023486,519.5)">Alphaproteobacteria</text><path class="line" d=" M 1093.2451198325798,282.67917353580094 A 237.45102949691994,237.45102949691994 0 0 0 842.8507575918934,474.28290779975794"/><line x1="1099.4075248239437" y1="198.2648377121763" x2="1093.2451198325798" y2="282.67917353580094"/><text x="796.1862401538885" y="519.5" text-anchor="end" style="font-color:black;font-weight:normal" transform="rotate(52.576499295251665,1075.9567549023486,519.5)">Rhodobacterales&#160;&#160;&#160;23%</text><path class="line" d=" M 1125.4280736726143,287.2596503010773 A 237.45102949691994,237.45102949691994 0 0 0 1093.2451198325798,282.67917353580094"/><line x1="1143.0620317102623" y1="204.47801675988813" x2="1125.4280736726143" y2="287.2596503010773"/><text x="1355.7272696508087" y="519.5" text-anchor="start" style="font-color:black;font-weight:normal" transform="rotate(278.10028644609815,1075.9567549023486,519.5)">2%&#160;&#160;&#160;Rhizobiales</text><path class="line" d=" M 1156.8167334291059,296.24083382355946 A 237.45102949691994,237.45102949691994 0 0 0 1125.4280736726143,287.2596503010773"/><line x1="1185.6391198887725" y1="216.660526167765" x2="1156.8167334291059" y2="296.24083382355946"/><text x="1355.7272696508087" y="519.5" text-anchor="start" style="font-color:black;font-weight:normal" transform="rotate(285.9673239265849,1075.9567549023486,519.5)">2%&#160;&#160;&#160;Sphingomonadales</text><path class="line" d=" M 1172.139326680321,302.4011646845558 A 237.45102949691994,237.45102949691994 0 0 0 1156.8167334291059,296.24083382355946"/><line x1="1206.4234225331534" y1="225.01669531650333" x2="1172.139326680321" y2="302.4011646845558"/><text x="1355.7272696508087" y="519.5" text-anchor="start" style="font-color:black;font-weight:normal" transform="rotate(291.90221427380607,1075.9567549023486,519.5)">1%&#160;&#160;&#160;Rhodospirillales</text><path class="line" d=" M 1183.4332731220443,307.76481293720076 A 237.45102949691994,237.45102949691994 0 0 0 1172.139326680321,302.4011646845558"/><line x1="1221.743074829973" y1="232.29220584747293" x2="1183.4332731220443" y2="307.76481293720076"/><path class="line" d=" M 1270.4051712665755,526.4003936934677 A 194.5708150254827,194.5708150254827 0 0 0 1172.0738264211784,350.3275713293542"/><line x1="1397.8441377482873" y1="530.9228220940429" x2="1270.4051712665755" y2="526.4003936934677"/><text x="1075.9567549023486" y="312.06512063308617" text-anchor="middle" style="font-color:black;font-weight:normal" transform="rotate(420.81796274685144,1075.9567549023486,519.5)">Gammapr...acteria</text><path class="line" d=" M 1298.8205861831095,437.55670182371443 A 237.45102949691994,237.45102949691994 0 0 0 1193.2564515777526,313.04474438996374"/><line x1="1378.2599774628195" y1="408.3481681232628" x2="1298.8205861831095" y2="437.55670182371443"/><text x="1355.7272696508087" y="519.5" text-anchor="start" style="font-color:black;font-weight:normal" transform="rotate(319.7079462269441,1075.9567549023486,519.5)">11%&#160;&#160;&#160;Alteromonadales</text><path class="line" d=" M 1304.9617040648789,456.73277393245684 A 237.45102949691994,237.45102949691994 0 0 0 1298.8205861831095,437.55670182371443"/><line x1="1386.5900852022123" y1="434.35951487796257" x2="1304.9617040648789" y2="456.73277393245684"/><text x="1355.7272696508087" y="519.5" text-anchor="start" style="font-color:black;font-weight:normal" transform="rotate(342.2423879601704,1075.9567549023486,519.5)">1%&#160;&#160;&#160;Chromatiales</text><line x1="1386.0467549023488" y1="519.5" x2="1410.0467549023488" y2="519.5" class="tick" transform="rotate(347.465937163729,1075.9567549023486,519.5)"/><text x="1414.0467549023488" y="519.5" text-anchor="start" style="font-color:black;font-weight:normal" transform="rotate(347.465937163729,1075.9567549023486,519.5)">7 more</text><path class="line" d=" M 1309.9846979814101,479.32646060737693 A 237.45102949691994,237.45102949691994 0 0 0 1304.9617040648789,456.73277393245684"/><line x1="1393.4035158030536" y1="465.0066784490913" x2="1309.9846979814101" y2="479.32646060737693"/><path class="line" d=" M 1313.3979653427202,517.3406033809598 A 237.45102949691994,237.45102949691994 0 0 0 1309.9846979814101,479.32646060737693"/><line x1="1398.033435861659" y1="516.5708905389872" x2="1313.3979653427202" y2="517.3406033809598"/><text x="1355.7272696508087" y="519.5" text-anchor="start" style="font-color:black;font-weight:normal" transform="rotate(354.8692047710705,1075.9567549023486,519.5)">3%&#160;&#160;&#160;Vibrionales</text><path class="line" d=" M 1313.4062297489131,520.359246319682 A 237.45102949691994,237.45102949691994 0 0 0 1313.3979653427202,517.3406033809598"/><line x1="1398.0446460998135" y1="520.6655230457106" x2="1313.4062297489131" y2="520.359246319682"/><path class="line" d=" M 1268.9255250617744,544.4169782044162 A 194.5708150254827,194.5708150254827 0 0 0 1270.4051712665755,526.4003936934677"/><line x1="1395.3947506393213" y1="560.7472420841189" x2="1268.9255250617744" y2="544.4169782044162"/><text x="1075.9567549023486" y="744.0869651554888" text-anchor="middle" style="font-color:black;font-weight:normal" transform="rotate(274.6949879510769,1075.9567549023486,519.5)">delta/epsilon subdivisions</text><path class="line" d=" M 1311.5766170028253,548.9324989237999 A 237.45102949691994,237.45102949691994 0 0 0 1313.2584110817934,527.9211272190712"/><line x1="1395.5628713497274" y1="559.4236575156214" x2="1311.5766170028253" y2="548.9324989237999"/><text x="1355.7272696508087" y="519.5" text-anchor="start" style="font-color:black;font-weight:normal" transform="rotate(364.5763174247132,1075.9567549023486,519.5)">1%&#160;&#160;&#160;Deltaproteobacteria</text><path class="line" d=" M 1311.4526751363728,549.9082712806443 A 237.45102949691994,237.45102949691994 0 0 0 1311.5766170028253,548.9324989237999"/><path class="line" d=" M 1268.2664542990726,549.0767066730264 A 194.5708150254827,194.5708150254827 0 0 0 1268.9255250617744,544.4169782044162"/><line x1="1394.30373345912" y1="568.46089606793" x2="1268.2664542990726" y2="549.0767066730264"/><path class="line" d=" M 1193.9144585331278,600.6788030564644 A 143.19224110100012,143.19224110100012 0 0 0 1217.300858397988,542.4316880874691"/><line x1="1341.2853542057105" y1="702.0998425292751" x2="1193.9144585331278" y2="600.6788030564644"/><text x="1075.9567549023486" y="678.1058132783448" text-anchor="middle" style="font-color:black;font-weight:normal" transform="rotate(291.8756157075522,1075.9567549023486,519.5)">enviro...amples</text><path class="line" d=" M 1237.9930419385823,627.2127835644026 A 194.5708150254827,194.5708150254827 0 0 0 1268.0163050898107,550.6597695991214"/><line x1="1344.1895198453606" y1="697.8063428794021" x2="1237.9930419385823" y2="627.2127835644026"/><text x="1334.2871624150898" y="519.5" text-anchor="start" style="font-color:black;font-weight:normal" transform="rotate(381.41457389248416,1075.9567549023486,519.5)">7%&#160;&#160;&#160;uncultured bacterium</text><path class="line" d=" M 1236.2386693238607,629.806436661945 A 194.5708150254827,194.5708150254827 0 0 0 1237.9930419385823,627.2127835644026"/><path class="line" d=" M 1146.1886003338448,644.2858397367802 A 143.19224110100012,143.19224110100012 0 0 0 1193.9144585331278,600.6788030564644"/><line x1="1233.933017590178" y1="800.187492644731" x2="1146.1886003338448" y2="644.2858397367802"/><text x="1075.9567549023486" y="698.6572428481379" text-anchor="middle" style="font-color:black;font-weight:normal" transform="rotate(317.58210697018836,1075.9567549023486,519.5)">FCB group</text><path class="line" d=" M 1171.3883739710893,689.060042880389 A 194.5708150254827,194.5708150254827 0 0 0 1236.2386693238607,629.806436661945"/><text x="1075.9567549023486" y="726.9348793669138" text-anchor="middle" style="font-color:black;font-weight:normal" transform="rotate(317.58210697018836,1075.9567549023486,519.5)">Bacter... group</text><path class="line" d=" M 1192.41993665683,726.4282936303533 A 237.45102949691994,237.45102949691994 0 0 0 1271.562172827646,654.1161650301215"/><text x="1355.7272696508087" y="519.5" text-anchor="start" style="font-color:black;font-weight:normal" transform="rotate(407.58210697018836,1075.9567549023486,519.5)">7%&#160;&#160;&#160;Bacteroidetes</text><path class="line" d=" M 1192.41993665683,726.4282936303533 A 237.45102949691994,237.45102949691994 0 0 0 1192.41993665683,726.4282936303533"/><path class="line" d=" M 1171.3883739710893,689.060042880389 A 194.5708150254827,194.5708150254827 0 0 0 1171.3883739710893,689.060042880389"/><path class="line" d=" M 1141.7280127990527,646.6933942711341 A 143.19224110100012,143.19224110100012 0 0 0 1146.1886003338448,644.2858397367802"/><path class="line" d=" M 1091.1379520129424,598.578469007305 A 80.52250000000001,80.52250000000001 0 0 0 1112.9424607846374,591.0257335973482"/><line x1="1136.6815433447237" y1="835.8138760292202" x2="1091.1379520129424" y2="598.578469007305"/><text x="1075.9567549023486" y="643.8913187707001" text-anchor="middle" style="font-color:black;font-weight:normal" transform="rotate(340.8947272699717,1075.9567549023486,519.5)">Archaea</text><path class="line" d=" M 1103.7931187797801,659.9605096018456 A 143.19224110100012,143.19224110100012 0 0 0 1141.7280127990527,646.6933942711341"/><line x1="1138.5705835032848" y1="835.4453695940686" x2="1103.7931187797801" y2="659.9605096018456"/><text x="1075.9567549023486" y="678.1058132783448" text-anchor="middle" style="font-color:black;font-weight:normal" transform="rotate(340.72354162561953,1075.9567549023486,519.5)">Eurya...aeota</text><path class="line" d=" M 1114.23076374393,710.2692383663444 A 194.5708150254827,194.5708150254827 0 0 0 1165.3272903155523,692.331448121104"/><line x1="1139.3150520147415" y1="835.2969193754393" x2="1114.23076374393" y2="710.2692383663444"/><text x="1075.9567549023486" y="744.0869651554888" text-anchor="middle" style="font-color:black;font-weight:normal" transform="rotate(340.6560221882057,1075.9567549023486,519.5)">Stenosarchaea group</text><path class="line" d=" M 1125.7376479632856,751.6741891236034 A 237.45102949691994,237.45102949691994 0 0 0 1185.02308963388,730.4206628981065"/><line x1="1143.481953171515" y1="834.4322398528132" x2="1125.7376479632856" y2="751.6741891236034"/><text x="1355.7272696508087" y="519.5" text-anchor="start" style="font-color:black;font-weight:normal" transform="rotate(430.27750412997676,1075.9567549023486,519.5)">4%&#160;&#160;&#160;Halobacteria</text><path class="line" d=" M 1122.6657271663414,752.3116477309259 A 237.45102949691994,237.45102949691994 0 0 0 1125.7376479632856,751.6741891236034"/><path class="line" d=" M 1114.0354547219283,710.3083192099625 A 194.5708150254827,194.5708150254827 0 0 0 1114.23076374393,710.2692383663444"/><line x1="1138.9917399965013" y1="835.3616132963612" x2="1114.0354547219283" y2="710.3083192099625"/><path class="line" d=" M 1102.9533041508437,660.1243372969293 A 143.19224110100012,143.19224110100012 0 0 0 1103.7931187797801,659.9605096018456"/><path class="line" d=" M 1075.9567549023486,600.0225 A 80.52250000000001,80.52250000000001 0 0 0 1091.1379520129424,598.578469007305"/><line x1="1075.9567549023486" y1="841.59" x2="1075.9567549023486" y2="600.0225"/><text x="1075.9567549023486" y="618.8234223303" text-anchor="middle" style="font-color:black;font-weight:normal" transform="rotate(354.5663903244874,1075.9567549023486,519.5)">Eukaryota</text><path class="line" d=" M 1085.7056190905369,662.359992855128 A 143.19224110100012,143.19224110100012 0 0 0 1102.9533041508437,660.1243372969293"/><line x1="1097.8853988165029" y1="840.842656172638" x2="1085.7056190905369" y2="662.359992855128"/><text x="1075.9567549023486" y="698.6572428481379" text-anchor="middle" style="font-color:black;font-weight:normal" transform="rotate(352.61446477016113,1075.9567549023486,519.5)">Stramenopiles</text><path class="line" d=" M 1092.7873041874427,713.3415194700109 A 194.5708150254827,194.5708150254827 0 0 0 1112.639891850043,710.5815258557386"/><line x1="1103.817827584426" y1="840.3827336099654" x2="1092.7873041874427" y2="713.3415194700109"/><text x="1075.9567549023486" y="726.9348793669138" text-anchor="middle" style="font-color:black;font-weight:normal" transform="rotate(352.08522150316,1075.9567549023486,519.5)">Bacil...phyta</text><path class="line" d=" M 1117.667137846515,753.258925741453 A 237.45102949691994,237.45102949691994 0 0 0 1120.7242532153189,752.6927582579385"/><line x1="1132.5347249829576" y1="836.5818528417508" x2="1117.667137846515" y2="753.258925741453"/><path class="line" d=" M 1100.4525470600702,755.684139128166 A 237.45102949691994,237.45102949691994 0 0 0 1117.667137846515,753.258925741453"/><line x1="1109.1840258592129" y1="839.8715289546797" x2="1100.4525470600702" y2="755.684139128166"/><text x="1355.7272696508087" y="519.5" text-anchor="start" style="font-color:black;font-weight:normal" transform="rotate(441.9808732817024,1075.9567549023486,519.5)">1%&#160;&#160;&#160;Bacillariophyceae</text><path class="line" d=" M 1100.4525470600702,755.684139128166 A 237.45102949691994,237.45102949691994 0 0 0 1100.4525470600702,755.684139128166"/><line x1="1109.1840258592129" y1="839.8715289546797" x2="1100.4525470600702" y2="755.684139128166"/><path class="line" d=" M 1089.2035931114845,713.6193533297017 A 194.5708150254827,194.5708150254827 0 0 0 1092.7873041874427,713.3415194700109"/><line x1="1386.0467549023488" y1="519.5" x2="1410.0467549023488" y2="519.5" class="tick" transform="rotate(448.0480744456737,1075.9567549023486,519.5)"/><text x="1414.0467549023488" y="519.5" text-anchor="start" style="font-color:black;font-weight:normal" transform="rotate(448.0480744456737,1075.9567549023486,519.5)">4 more</text><path class="line" d=" M 1075.9567549023486,662.6922411010001 A 143.19224110100012,143.19224110100012 0 0 0 1085.7056190905369,662.359992855128"/><path class="line" d=" M 1075.9567549023486,600.0225 A 80.52250000000001,80.52250000000001 0 0 0 1075.9567549023486,600.0225"/><line x1="1075.9567549023486" y1="841.59" x2="1075.9567549023486" y2="600.0225"/><path class="line" d=" M 1075.9567549023486,662.6922411010001 A 143.19224110100012,143.19224110100012 0 0 0 1075.9567549023486,662.6922411010001"/></svg>